Patient4_TMGait_0pt7_01_right_30_GRF.mot
version=1
nRows=39
nColumns=19
inDegrees=no
endheader
time	F1x	F1y	F1z	M1x	M1y	M1z	F2x	F2y	F2z	M2x	M2y	M2z	EC1x	EC1y	EC1z	EC2x	EC2y	EC2z
34.03	-0.96687	737.6394	43.2643	-272.2421	-53.7633	777.478	-2.1354	8.6997	-1.2344	1.9142	1.7849	13.0487	-0.0592	0.0182	-0.0073	-0.0462	0.0165	0.9585
34.0419	-5.3675	742.8166	46.0685	-275.3751	-54.7511	778.9778	-1.5457	6.8857	-0.89016	1.6864	1.2851	9.8495	-0.0592	0.0182	-0.0073	-0.0462	0.0165	0.9585
34.0537	-8.7572	749.5584	48.0777	-278.861	-54.9506	781.5276	-1.0645	5.4386	-0.59195	1.518	0.86219	7.2634	-0.0592	0.0182	-0.0073	-0.0462	0.0165	0.9585
34.0656	-10.8821	757.3378	49.2272	-282.4337	-54.3748	784.7363	-0.70925	4.4035	-0.34892	1.4109	0.52702	5.3905	-0.0592	0.0182	-0.0073	-0.0462	0.0165	0.9585
34.0774	-11.7436	765.3996	49.6369	-285.8137	-53.1721	787.9376	-0.47393	3.7489	-0.17757	1.3558	0.29475	4.1898	-0.0592	0.0182	-0.0073	-0.0462	0.0165	0.9585
34.0893	-11.4808	772.9027	49.5174	-288.7327	-51.5484	790.377	-0.33738	3.3949	-0.06002	1.3372	0.1457	3.5185	-0.0592	0.0182	-0.0073	-0.0462	0.0165	0.9585
34.1011	-10.2774	779.0725	49.0433	-290.9718	-49.6529	791.3346	-0.28271	3.2256	0.0010135	1.3308	0.079149	3.1917	-0.0592	0.0182	-0.0073	-0.0462	0.0165	0.9585
34.113	-8.3407	783.3386	48.3495	-292.3956	-47.5893	790.268	-0.29036	3.1406	0.017828	1.315	0.078636	3.061	-0.0592	0.0182	-0.0073	-0.0462	0.0165	0.9585
34.1249	-5.8478	785.387	47.513	-292.963	-45.399	786.8831	-0.35071	3.0121	-0.0079138	1.2563	0.13881	2.9496	-0.0592	0.0182	-0.0073	-0.0462	0.0165	0.9585
34.1367	-2.9434	785.1596	46.6216	-292.7124	-43.137	781.1323	-0.46249	2.7346	-0.071459	1.1242	0.25425	2.7176	-0.0592	0.0182	-0.0073	-0.0462	0.0165	0.9585
34.1486	0.2448	782.805	45.7369	-291.7448	-40.846	773.1723	-0.60845	2.1769	-0.16892	0.87872	0.41677	2.1894	-0.0592	0.0182	-0.0073	-0.0462	0.0165	0.9585
34.1604	3.6187	778.6322	44.9174	-290.1957	-38.5718	763.3221	-0.78891	1.2355	-0.29345	0.48559	0.61754	1.2284	-0.0592	0.0182	-0.0073	-0.0462	0.0165	0.9585
34.1723	7.0887	773.0168	44.2205	-288.2002	-36.3651	751.9841	-0.95977	-0.17011	-0.43732	-0.08094	0.83344	-0.28353	-0.0592	0.0182	-0.0073	-0.0462	0.0165	0.9585
34.1841	10.5839	766.3889	43.7192	-285.8904	-34.2918	739.6192	-1.0841	-2.0419	-0.5869	-0.81799	1.0329	-2.3551	-0.0592	0.0182	-0.0073	-0.0462	0.0165	0.9585
34.196	14.0627	759.202	43.5058	-283.3905	-32.439	726.7356	-1.0696	-4.2512	-0.71431	-1.6727	1.1536	-4.8484	-0.0592	0.0182	-0.0073	-0.0462	0.0165	0.9585
34.2079	17.4901	751.8933	43.683	-280.8149	-30.9127	713.8331	-0.84828	-6.4571	-0.76932	-2.5141	1.1085	-7.36	-0.0592	0.0182	-0.0073	-0.0462	0.0165	0.9585
34.2197	20.8265	744.9371	44.3275	-278.2924	-29.8092	701.4514	-0.29139	-8.0467	-0.67365	-3.1053	0.76369	-9.197	-0.0592	0.0182	-0.0073	-0.0462	0.0165	0.9585
34.2316	24.0356	738.7723	45.4857	-275.9493	-29.2052	690.1048	0.69637	-8.0319	-0.32628	-3.0689	-0.034501	-9.2213	-0.0592	0.0182	-0.0073	-0.0462	0.0165	0.9585
34.2434	27.0757	733.7647	47.1275	-273.8948	-29.1133	680.2214	2.2379	-5.0235	0.40204	-1.8712	-1.471	-5.8637	-0.0592	0.0182	-0.0073	-0.0462	0.0165	0.9585
34.2553	29.9298	730.062	49.1664	-272.1665	-29.4828	671.9994	4.3799	2.7913	1.6466	1.1783	-3.7048	2.9586	-0.0592	0.0182	-0.0073	-0.0462	0.0165	0.9585
34.2671	32.6339	727.4439	51.4488	-270.6806	-30.1833	665.2811	7.0963	17.4865	3.5303	6.8709	-6.8405	19.6088	-0.0592	0.0182	-0.0073	-0.0462	0.0165	0.9585
34.279	35.2621	725.308	53.735	-269.2299	-30.985	659.5276	10.1492	41.1372	6.107	15.9927	-10.8211	46.4615	-0.0592	0.0182	-0.0073	-0.0462	0.0165	0.9585
34.2909	37.8874	722.6541	55.7113	-267.4796	-31.5878	653.8307	13.0424	75.1934	9.2792	29.0934	-15.3157	85.1713	-0.0592	0.0182	-0.0073	-0.0462	0.0165	0.9585
34.3027	40.5599	718.1749	57.0194	-264.9946	-31.6532	646.9951	14.8536	119.6685	12.7124	46.1615	-19.5674	135.7812	-0.0592	0.0182	-0.0073	-0.0462	0.0165	0.9585
34.3146	43.2991	710.409	57.3319	-261.2934	-30.8798	637.6749	14.2154	171.8356	15.7082	66.1348	-22.249	195.1898	-0.0592	0.0182	-0.0073	-0.0462	0.0165	0.9585
34.3264	46.0901	698.0178	56.3761	-255.9473	-29.0291	624.613	9.8869	225.4108	17.1226	86.5619	-21.6425	256.2975	-0.0592	0.0182	-0.0073	-0.0462	0.0165	0.9585
34.3383	48.9155	680.1615	54.0429	-248.7119	-26.0215	606.9789	2.6343	271.8328	15.7631	104.1259	-16.8152	309.3544	-0.0592	0.0182	-0.0073	-0.0462	0.0165	0.9585
34.3501	51.7336	656.8144	50.3606	-239.6308	-21.9065	584.6607	-5.5336	305.167	11.9034	116.5744	-8.9679	347.4476	-0.0592	0.0182	-0.0073	-0.0462	0.0165	0.9585
34.362	54.4462	628.6363	45.5611	-228.9616	-16.9259	558.2053	-12.9385	324.7859	6.6106	123.6798	0.10572	369.6719	-0.0592	0.0182	-0.0073	-0.0462	0.0165	0.9585
34.3739	56.938	596.4779	39.9842	-217.0124	-11.4097	528.3735	-18.4781	333.2299	0.42865	126.4544	9.3186	378.848	-0.0592	0.0182	-0.0073	-0.0462	0.0165	0.9585
34.3857	59.0132	561.3247	33.9445	-204.1106	-5.6823	496.0875	-21.7967	334.676	-5.1711	126.5805	16.9876	379.702	-0.0592	0.0182	-0.0073	-0.0462	0.0165	0.9585
34.3976	60.413	523.989	27.7655	-190.5147	-0.10061	462.0973	-23.1202	333.4405	-9.7055	125.7637	22.6191	377.2077	-0.0592	0.0182	-0.0073	-0.0462	0.0165	0.9585
34.4094	60.8176	485.0907	21.765	-176.4025	4.9643	426.9801	-22.7893	333.2664	-12.138	125.5031	25.298	375.5284	-0.0592	0.0182	-0.0073	-0.0462	0.0165	0.9585
34.4213	59.9071	444.965	16.3034	-161.8514	9.1012	391.0312	-21.2313	337.0401	-12.715	126.8903	25.4305	377.9023	-0.0592	0.0182	-0.0073	-0.0462	0.0165	0.9585
34.4331	57.361	403.8213	11.6628	-146.8974	11.9694	354.4336	-18.7741	346.7873	-11.6373	130.6698	23.419	386.4879	-0.0592	0.0182	-0.0073	-0.0462	0.0165	0.9585
34.445	53.035	361.9334	8.0239	-131.6187	13.368	317.3896	-15.8427	363.5188	-10.1268	137.1331	20.7087	402.3905	-0.0592	0.0182	-0.0073	-0.0462	0.0165	0.9585
34.4569	47.0178	319.8508	5.3849	-116.2135	13.3336	280.3564	-12.8898	387.3227	-9.1696	146.2392	18.54	425.6294	-0.0592	0.0182	-0.0073	-0.0462	0.0165	0.9585
34.4687	39.7579	278.3713	3.6305	-100.9904	12.1147	243.9843	-10.5211	417.7525	-9.8268	157.7402	18.2401	455.7008	-0.0592	0.0182	-0.0073	-0.0462	0.0165	0.9585
34.4806	31.9241	238.4629	2.6234	-86.3264	10.0575	209.0817	-9.1059	454.1978	-12.4037	171.3848	20.2807	491.8194	-0.0592	0.0182	-0.0073	-0.0462	0.0165	0.9585
